<?xml version="1.0" encoding="UTF-8" standalone="no"?>
<svg
   xmlns:dc="http://purl.org/dc/elements/1.1/"
   xmlns:cc="http://creativecommons.org/ns#"
   xmlns:rdf="http://www.w3.org/1999/02/22-rdf-syntax-ns#"
   xmlns:svg="http://www.w3.org/2000/svg"
   xmlns="http://www.w3.org/2000/svg"
   height="97"
   width="97"
   xml:space="preserve"
   viewBox="0 0 97 97"
   version="1.1"
   id="Слой_1"
   enable-background="new 0 0 128 128"><metadata
     id="metadata21"><rdf:RDF><cc:Work
         rdf:about=""><dc:format>image/svg+xml</dc:format><dc:type
           rdf:resource="http://purl.org/dc/dcmitype/StillImage" /><dc:title></dc:title></cc:Work></rdf:RDF></metadata><defs
     id="defs19" /><g
     transform="translate(-15.5,-15.5)"
     id="g3"><g
       id="g5"><path
         style="fill:#303031"
         id="path7"
         d="M 64,110.5 C 38.359,110.5 17.5,89.64 17.5,64 17.5,38.36 38.359,17.5 64,17.5 c 25.641,0 46.5,20.86 46.5,46.5 0,25.64 -20.859,46.5 -46.5,46.5 z m 0,-90 c -23.986,0 -43.5,19.514 -43.5,43.5 0,23.986 19.514,43.5 43.5,43.5 23.986,0 43.5,-19.514 43.5,-43.5 C 107.5,40.014 87.986,20.5 64,20.5 Z" /></g><g
       id="g9"><path
         style="fill:#303031"
         id="path11"
         d="m 76.893,52.187 c 0,6.772 -5.773,19.34 -12.893,19.34 -7.12,0 -12.893,-12.568 -12.893,-19.34 0,-6.772 5.772,-12.261 12.893,-12.261 7.121,0 12.893,5.489 12.893,12.261 z" /></g><g
       id="g13"><path
         style="fill:#303031"
         id="path15"
         d="M 74.864,70.629 C 71.971,74.122 68.292,76.583 64,76.583 59.708,76.583 56.029,74.121 53.136,70.629 46.199,72.548 41.5,76.35 41.5,81.26 c 0,2.402 1.601,3.413 6.097,3.413 l 16.403,0 16.403,0 c 4.496,0 6.097,-1.012 6.097,-3.413 0,-4.91 -4.699,-8.712 -11.636,-10.631 z" /></g></g></svg>