<?xml version="1.0" encoding="UTF-8" standalone="no"?>
<svg
   xmlns:dc="http://purl.org/dc/elements/1.1/"
   xmlns:cc="http://creativecommons.org/ns#"
   xmlns:rdf="http://www.w3.org/1999/02/22-rdf-syntax-ns#"
   xmlns:svg="http://www.w3.org/2000/svg"
   xmlns="http://www.w3.org/2000/svg"
   enable-background="new 0 0 32 32"
   height="14.968296"
   id="Слой_1"
   version="1.1"
   viewBox="0 0 15.031756 14.968296"
   width="15.031756"
   xml:space="preserve"><metadata
     id="metadata24"><rdf:RDF><cc:Work
         rdf:about=""><dc:format>image/svg+xml</dc:format><dc:type
           rdf:resource="http://purl.org/dc/dcmitype/StillImage" /><dc:title></dc:title></cc:Work></rdf:RDF></metadata><defs
     id="defs22" /><path
     style="clip-rule:evenodd;fill:#ff0000;fill-opacity:1;fill-rule:evenodd;stroke:#ff0000;stroke-width:0.93749946;stroke-miterlimit:4;stroke-dasharray:none;stroke-opacity:1"
     id="path4"
     d="m 7.5158782,0.46874973 c -3.8922171,0 -7.04712847,3.14070617 -7.04712847,7.01539857 0,3.8742537 3.15491137,7.0153987 7.04712847,7.0153987 3.8917768,0 7.0471278,-3.140706 7.0471278,-7.0153987 0,-3.8746924 -3.155351,-7.01539857 -7.0471278,-7.01539857 z m 0,13.15387227 c -3.4055248,0 -6.1662374,-2.748282 -6.1662374,-6.1384737 0,-3.3901914 2.7607126,-6.1384738 6.1662374,-6.1384738 3.4055248,0 6.1662368,2.7482824 6.1662368,6.1384738 0,3.3901917 -2.760712,6.1384737 -6.1662368,6.1384737 z" /><path
     style="clip-rule:evenodd;fill:#ff0000;fill-opacity:1;fill-rule:evenodd;stroke:#ff0000;stroke-width:0.93749946;stroke-miterlimit:4;stroke-dasharray:none;stroke-opacity:1"
     id="path6"
     d="M 10.479636,9.7952837 8.1593691,7.4850252 10.466423,5.207213 c 0.173975,-0.1714388 0.173975,-0.4489855 0,-0.6199859 -0.173536,-0.1710003 -0.455421,-0.1710003 -0.6289564,0 L 7.533496,6.8619701 5.1951707,4.5337347 c -0.1735355,-0.1736311 -0.4554207,-0.1736311 -0.6289562,0 -0.1735355,0.1731927 -0.1735355,0.4546855 0,0.6278782 L 6.9010163,7.4863406 4.5530011,9.8044917 c -0.1735355,0.171438 -0.1735355,0.4489853 0,0.6199853 0.1735356,0.171439 0.4554207,0.171439 0.6293967,0 l 2.344932,-2.3150813 2.3237906,2.3133283 c 0.1735356,0.173631 0.4554206,0.173631 0.6289566,0 0.173094,-0.172755 0.173094,-0.4538093 -4.41e-4,-0.6274403 z" /><g
     id="g8"
     transform="translate(0.4994983,-17.532222)" /><g
     id="g10"
     transform="translate(0.4994983,-17.532222)" /><g
     id="g12"
     transform="translate(0.4994983,-17.532222)" /><g
     id="g14"
     transform="translate(0.4994983,-17.532222)" /><g
     id="g16"
     transform="translate(0.4994983,-17.532222)" /><g
     id="g18"
     transform="translate(0.4994983,-17.532222)" /></svg>