<?xml version="1.0" standalone="no"?>
<!DOCTYPE svg PUBLIC "-//W3C//DTD SVG 20010904//EN"
 "http://www.w3.org/TR/2001/REC-SVG-20010904/DTD/svg10.dtd">
<svg xmlns="http://www.w3.org/2000/svg"
     width="700.000000pt" height="700.000000pt" viewBox="0 0 700.000000 700.000000"
     preserveAspectRatio="xMidYMid meet">
<metadata>
Created by potrace 1.11, written by Peter Selinger 2001-2013
</metadata>
<g transform="translate(0.000000,700.000000) scale(0.100000,-0.100000)"
fill="#000000" stroke="none">
<path d="M5323 6847 c-12 -7 -153 -196 -313 -422 -161 -225 -293 -411 -294
-412 -1 -1 -52 7 -114 18 -271 46 -396 54 -857 54 -478 0 -591 -8 -860 -62
l-130 -26 -53 59 c-94 103 -344 404 -451 544 -57 74 -112 143 -123 153 -46 39
-121 9 -139 -56 -50 -185 -64 -359 -78 -993 l-7 -361 -49 -72 c-95 -144 -138
-294 -139 -486 -1 -196 42 -347 139 -495 l54 -82 2 -349 1 -348 -34 -40 c-41
-48 -83 -131 -93 -183 -8 -41 -6 -40 -129 -53 -176 -19 -239 -77 -286 -261
-44 -170 -53 -329 -45 -764 4 -223 10 -429 14 -459 10 -84 20 -88 241 -101
120 -8 187 -16 192 -23 4 -7 8 -40 8 -75 0 -111 28 -137 141 -137 l56 1 11
-145 c13 -160 23 -188 78 -203 16 -4 210 -11 432 -15 l402 -6 0 -227 0 -228
-34 -26 c-64 -49 -205 -297 -206 -363 0 -34 47 -83 80 -83 39 0 48 12 110 139
29 61 57 111 62 111 4 0 8 -19 9 -42 1 -85 25 -200 45 -215 26 -20 84 -9 108
19 16 20 18 34 11 116 -3 52 -9 100 -12 108 -14 37 20 5 82 -77 38 -49 77 -95
87 -100 48 -26 126 29 113 80 -17 66 -202 293 -268 327 l-27 15 0 228 0 229
68 7 c208 19 371 39 482 60 69 12 128 20 132 16 12 -11 31 -515 19 -519 -27
-9 -95 -67 -131 -113 -48 -61 -128 -221 -137 -272 -7 -44 22 -77 68 -77 51 0
66 16 119 124 73 150 82 153 74 27 -8 -119 2 -141 66 -141 67 0 81 22 91 134
4 54 10 100 12 102 6 6 50 -63 86 -134 44 -86 85 -104 137 -58 22 18 28 32 27
59 -2 73 -142 276 -224 324 l-29 17 0 151 c0 83 -5 211 -11 284 -6 73 -9 135
-7 137 3 2 44 15 94 29 347 100 706 305 929 531 280 283 452 684 510 1190 23
202 45 615 54 1014 l8 365 41 85 c122 251 115 556 -17 817 l-31 62 0 228 c0
352 -26 976 -50 1223 -7 73 -11 87 -35 107 -29 26 -50 28 -82 10z m-19 -464
c10 -233 25 -725 26 -825 l0 -87 -64 44 c-82 58 -171 99 -271 126 -105 29
-342 32 -453 6 -332 -77 -580 -272 -677 -532 -17 -44 -40 -83 -61 -104 -46
-45 -70 -92 -83 -166 -6 -32 -11 -60 -11 -62 0 -2 -24 -3 -52 -1 l-53 3 -7 50
c-10 73 -36 133 -76 177 -19 21 -50 73 -68 114 -109 251 -277 400 -541 481
-81 25 -101 27 -263 27 -158 0 -185 -3 -273 -27 -54 -14 -146 -49 -204 -77
-59 -28 -107 -49 -108 -48 -4 7 25 919 31 966 4 29 10 55 15 58 4 2 34 -28 65
-68 98 -123 388 -469 454 -541 73 -79 65 -78 240 -39 270 60 495 76 988 69
396 -5 505 -14 749 -57 153 -27 176 -26 205 8 12 16 124 171 248 345 123 174
227 317 231 317 3 0 9 -71 13 -157z m-424 -884 c258 -41 457 -199 540 -428 74
-203 62 -417 -36 -619 -36 -74 -60 -107 -122 -170 -91 -91 -173 -141 -302
-184 -89 -30 -105 -32 -240 -32 -122 -1 -158 3 -224 22 -128 37 -230 95 -316
181 l-75 75 135 7 c203 10 319 47 370 119 54 75 65 118 65 250 -1 166 -17 222
-88 295 -77 79 -121 90 -359 90 -104 0 -188 2 -188 6 0 10 62 103 97 147 57
70 214 165 341 207 127 41 279 54 402 34z m-2060 -35 c87 -21 233 -93 299
-147 55 -47 123 -124 154 -176 l18 -31 -130 0 c-297 0 -423 -46 -488 -178 -26
-53 -28 -65 -28 -182 0 -142 14 -195 70 -272 71 -96 167 -127 393 -128 92 0
142 -4 142 -10 0 -6 -37 -48 -82 -94 -137 -138 -282 -196 -490 -196 -124 0
-230 19 -336 60 -228 88 -379 241 -444 450 -19 63 -23 96 -23 215 0 119 4 151
23 215 49 154 119 259 226 334 199 142 462 195 696 140z m549 -539 c66 -39 76
-63 76 -188 0 -131 -14 -167 -80 -201 -37 -19 -56 -21 -250 -21 -198 0 -212 1
-245 22 -62 38 -74 72 -72 196 2 116 14 156 55 179 59 34 83 37 282 35 180 -2
203 -4 234 -22z m1035 14 c27 -7 57 -24 77 -45 l34 -35 0 -124 c0 -138 -8
-160 -76 -200 -31 -18 -52 -20 -244 -20 -192 0 -213 2 -244 20 -62 37 -76 65
-80 173 -5 145 19 196 106 227 47 17 364 20 427 4z m-674 -336 c0 -33 47 -120
85 -157 l36 -37 -27 -47 c-15 -26 -59 -93 -97 -150 -57 -85 -72 -101 -83 -90
-17 18 -119 187 -146 242 l-21 44 45 51 c29 32 51 69 62 105 l18 56 64 0 c54
0 64 -3 64 -17z m276 -380 c103 -136 264 -241 451 -295 67 -19 102 -23 238
-22 135 0 173 3 245 23 97 26 250 95 319 144 25 18 52 37 60 42 12 7 13 -29 7
-251 -14 -540 -38 -864 -81 -1099 -74 -400 -210 -678 -445 -914 -355 -355
-876 -548 -1680 -623 -158 -14 -946 -16 -960 -2 -5 5 -12 59 -15 119 l-7 110
58 25 c32 13 97 47 144 76 l85 51 435 7 c239 4 489 11 555 15 118 8 121 9 215
59 102 54 167 76 270 93 41 6 73 18 87 31 l23 21 0 386 c0 522 -16 689 -75
819 -14 31 -40 72 -58 90 -46 48 -158 81 -337 99 -183 19 -190 20 -196 41 -13
44 -78 163 -110 200 -88 103 -225 179 -412 230 -88 23 -114 26 -292 26 -209 1
-271 -9 -389 -60 -29 -13 -57 -24 -62 -24 -5 0 -9 95 -9 210 0 116 2 210 4
210 2 0 45 -22 97 -49 111 -58 192 -85 313 -106 229 -39 486 5 672 116 57 34
176 141 208 189 17 24 18 24 29 6 198 -317 207 -329 264 -324 37 3 42 9 173
185 74 100 138 182 141 182 4 1 19 -16 35 -36z m-1226 -679 c254 -63 397 -195
431 -398 56 -331 -292 -930 -763 -1314 -176 -143 -351 -241 -460 -257 -44 -7
-47 -6 -52 16 -26 127 -45 1041 -27 1349 18 299 38 368 135 465 150 150 457
208 736 139z m-1024 -491 c-13 -90 -18 -741 -7 -987 6 -142 10 -260 9 -262 -2
-1 -59 0 -126 3 -122 6 -124 6 -134 32 -6 16 -10 200 -11 461 -2 386 0 446 17
535 20 110 49 197 71 215 12 10 128 36 174 39 10 1 12 -9 7 -36z m1781 14 c2
-2 -11 -34 -28 -70 -69 -148 -92 -397 -82 -886 l6 -308 -24 -7 c-13 -3 -191
-9 -395 -13 l-371 -6 116 120 c199 206 358 424 461 631 86 172 150 393 150
516 l0 39 81 -6 c45 -4 84 -8 86 -10z m249 -71 c48 -74 64 -248 64 -697 0
-279 -3 -360 -12 -363 -7 -2 -60 -19 -118 -37 -58 -19 -111 -35 -117 -37 -17
-5 -18 798 -2 914 14 106 43 176 85 213 42 38 78 40 100 7z"/>
<path d="M3234 4836 c-77 -34 -99 -127 -45 -188 27 -30 34 -33 89 -33 68 0
107 21 131 70 12 25 11 33 -5 74 -33 77 -99 108 -170 77z"/>
<path d="M4025 4836 c-87 -38 -104 -141 -34 -200 49 -42 125 -33 174 20 46 50
23 144 -44 179 -36 18 -56 18 -96 1z"/>
<path d="M5000 3615 c-20 -24 -29 -212 -12 -236 18 -26 68 -25 82 1 17 33 25
216 10 235 -16 19 -64 19 -80 0z"/>
<path d="M4592 3605 c-21 -15 -21 -20 -16 -123 4 -59 11 -113 17 -119 13 -18
62 -16 77 2 8 10 11 47 8 120 -3 92 -6 109 -22 121 -25 18 -36 18 -64 -1z"/>
<path d="M4156 3578 c-11 -16 -16 -46 -16 -103 0 -94 15 -125 59 -125 16 0 33
6 39 13 12 14 11 205 -1 225 -13 20 -64 14 -81 -10z"/>
<path d="M3695 3564 c-13 -14 -16 -28 -11 -62 3 -25 6 -67 6 -93 0 -41 4 -51
25 -65 23 -15 27 -15 50 0 23 15 25 22 25 99 0 46 -6 93 -13 107 -15 31 -58
38 -82 14z"/>
<path d="M4973 2988 c-29 -37 -52 -202 -33 -238 9 -17 19 -20 48 -18 43 4 45
8 62 146 9 72 9 96 0 107 -15 18 -64 20 -77 3z"/>
<path d="M4592 2982 c-29 -19 -44 -169 -22 -226 13 -35 50 -52 79 -37 20 11
21 20 21 129 0 79 -4 122 -12 130 -14 14 -47 16 -66 4z"/>
<path d="M4201 2961 c-16 -16 -18 -30 -14 -112 6 -127 9 -138 40 -145 59 -15
79 28 68 150 -9 116 -45 156 -94 107z"/>
<path d="M4650 2351 c-5 -11 -10 -38 -10 -61 0 -23 -7 -69 -16 -102 -14 -56
-14 -62 2 -79 18 -20 50 -25 71 -11 35 22 69 226 43 257 -18 22 -77 19 -90 -4z"/>
<path d="M4282 2342 c-28 -28 -39 -237 -15 -264 19 -21 56 -24 71 -5 14 16 32
127 32 195 0 78 -46 116 -88 74z"/>
<path d="M2030 3135 c-14 -17 -8 -91 17 -215 30 -150 57 -156 188 -40 50 44
92 80 95 80 3 0 16 -31 29 -70 35 -101 55 -130 89 -130 24 0 46 18 116 90 69
72 88 86 93 72 15 -45 56 -128 70 -144 31 -34 56 -22 155 80 189 193 235 292
137 292 -21 0 -35 -11 -62 -48 -45 -64 -166 -202 -176 -202 -9 0 -33 71 -52
154 -9 43 -18 61 -35 68 -33 16 -49 5 -90 -59 -42 -66 -121 -163 -134 -163
-11 0 -26 47 -45 135 -14 68 -32 95 -63 95 -8 0 -56 -40 -106 -90 -85 -83
-116 -105 -116 -81 0 37 -24 168 -32 179 -14 17 -63 15 -78 -3z"/>
<path d="M2091 2552 c-7 -12 -3 -64 11 -163 16 -116 24 -147 40 -161 31 -27
47 -22 92 29 22 26 65 73 94 105 60 66 52 71 94 -52 19 -52 28 -66 51 -74 27
-10 32 -7 89 59 34 39 94 102 135 140 75 73 84 92 57 119 -33 34 -63 20 -158
-74 l-92 -90 -33 81 c-51 125 -76 126 -183 3 -40 -46 -76 -84 -79 -84 -4 0
-10 32 -14 71 -8 79 -27 109 -70 109 -13 0 -29 -8 -34 -18z"/>
</g>
</svg>
