<svg xmlns="http://www.w3.org/2000/svg" viewBox="0 0 266.67 266.67"><defs><linearGradient id="a" x2="1" gradientTransform="matrix(0 135.08 135.08 0 104.45 41.864)" gradientUnits="userSpaceOnUse"><stop offset="0" stop-color="#004b99"/><stop offset=".503" stop-color="#007fff"/><stop offset="1" stop-color="#c4e2ff"/></linearGradient><linearGradient id="b" x2="1" gradientTransform="matrix(0 18.383 18.383 0 103.78 109.72)" gradientUnits="userSpaceOnUse"><stop offset="0" stop-color="#a87c00"/><stop offset=".588" stop-color="#ffbf0f"/><stop offset="1" stop-color="#ffdf87"/></linearGradient><clipPath id="c"><path d="M0 200h200V0H0z"/></clipPath><linearGradient id="d" x2="1" gradientTransform="matrix(0 38.539 38.539 0 77.537 54.837)" gradientUnits="userSpaceOnUse"><stop offset="0" stop-color="red"/><stop offset="1" stop-color="#ff6b6b"/></linearGradient><linearGradient id="e" x2="1" gradientTransform="matrix(0 51.7 51.7 0 77.162 50.472)" gradientUnits="userSpaceOnUse"><stop offset="0" stop-color="#a3d2ff"/><stop offset=".903" stop-color="#fff"/><stop offset="1" stop-color="#fff"/></linearGradient><clipPath id="f"><path d="M0 200h200V0H0z"/></clipPath><clipPath id="g"><path d="M64.624 86.75h46.668V41.959H64.624z"/></clipPath><clipPath id="h"><path d="M63.762 119.68h81.168v-14.947H63.762z"/></clipPath><clipPath id="i"><path d="M81.143 127.96h45.894v-11.881H81.143z"/></clipPath></defs><path fill="url(#a)" d="M129.54 156.47c-13.248 2.982-36.764 2.915-48.358-.396a277.103 277.103 0 0 0-15.567 18.877c-4.562-11.17-1.035-122.68.05-132.76 29.76-1.375 74.519-.218 78.448 43.007 2.65 29.147.994 80.154 0 91.746-5.961-8.611-10.598-14.837-14.573-20.469" transform="matrix(1.5932 0 0 -1.5932 -25.478 290.283)"/><path fill="url(#b)" d="M96.991 120.1c1.987-4.307 6.293-10.379 6.293-10.379s4.656 5.961 7.288 10.93l-3.18 7.287s-4.306-1.822-7.619.165z" transform="matrix(1.5932 0 0 -1.5932 -25.478 290.283)"/><g clip-path="url(#c)" transform="matrix(1.5932 0 0 -1.5932 -25.478 290.283)"><path fill="#fff" d="M115.04 143.34c-9.089-7.235-7.594-22.416 1.085-29.252 11.918-9.386 32.137-2.147 32.499 14.463.419 19.206-20.119 25.51-33.584 14.789M64.432 142.76c-6.461-5.437-7.373-18.465-2.339-24.852 8.943-11.349 29.923-11.347 35.083 3.098 3.783 9.631 0 21.326-10.319 25.453-8.056 3.224-16.676 1.136-22.425-3.699M105.68 89.021c-8.045-.653-5.078-17.886-5.74-33.121 0 0 5.014 3.348 10.03 3.569-.221 4.196 1.617 29.883-4.29 29.552"/></g><path fill="url(#d)" d="M52.703 89.499c-4.968-3.643-2.87-27.822-2.87-33.121 0 0 29.723-1.86 50.107-.478.662 15.235-2.305 32.468 5.74 33.121-2.31 1.392-16.399 2.095-29.487 2.095-11.432 0-22.1-.536-23.49-1.617" transform="matrix(1.5932 0 0 -1.5932 -25.478 290.283)"/><path fill="url(#e)" d="M60.324 92.149c-1.34-10.597-.791-28.3.204-41.549 13.58-2.649 48.062 36.638 28.29 48.498-3.507 2.104-7.751 3.074-11.883 3.074-8.126 0-15.817-3.753-16.611-10.023" transform="matrix(1.5932 0 0 -1.5932 -25.478 290.283)"/><g clip-path="url(#f)" transform="matrix(1.5932 0 0 -1.5932 -25.478 290.283)"><path fill="#fff" d="M125.94 126.1c0-2.915-2.384-5.299-5.3-5.299h-8.611c-2.915 0-5.3 2.384-5.3 5.299v3.643c0 2.915 2.385 5.3 5.3 5.3h8.611c2.916 0 5.3-2.385 5.3-5.3zM100.26 126.1c0-2.915-2.385-5.299-5.301-5.299h-8.61c-2.915 0-5.3 2.384-5.3 5.299v3.643c0 2.915 2.385 5.3 5.3 5.3h8.61c2.916 0 5.301-2.385 5.301-5.3z"/><path d="M117.67 96.065c-.135 1.064-.242 2.232-.048 3.292.13.709-.182 1.425-.925 1.629-.649.179-1.499-.214-1.629-.925-.242-1.316-.214-2.671-.046-3.996.089-.716.533-1.325 1.324-1.325.653 0 1.415.607 1.324 1.325m1.115-15.49c.143 1.503-.042 3.042-.251 4.529-.098.716-1.002 1.097-1.629.925-.763-.21-1.024-.915-.924-1.63.172-1.249.274-2.563.155-3.824-.069-.72.655-1.324 1.325-1.324.773 0 1.257.606 1.324 1.324m17.42 14.408c.79 0 1.235.608 1.325 1.325.175 1.378.251 2.771.259 4.159.01 1.709-2.64 1.708-2.65 0a34.424 34.424 0 0 0-.259-4.159c-.09-.718.672-1.325 1.325-1.325m-8.128 1.085c-.007 1.331-.042 2.672-.207 3.993-.089.717-.535 1.325-1.324 1.325-.654 0-1.415-.606-1.325-1.325.164-1.321.201-2.662.207-3.993.008-1.708 2.657-1.709 2.649 0m-23.191 4.388c-.74-.204-1.058-.921-.925-1.63.182-.984.208-2.018.117-3.015-.068-.721.653-1.325 1.324-1.325.773 0 1.258.606 1.326 1.325.114 1.238.013 2.5-.213 3.719-.13.711-.978 1.104-1.629.926m37.406 17.281c-6.012-6.628-16.579-7.513-23.944-2.813a14.931 14.931 0 0 0-4.082 3.882c5.738-.054 12.635-.425 13.576 6.726.049.174.082.359.082.566 0 2.755.221 5.33-1.299 7.772-1.612 2.593-4.535 3.158-7.334 3.158-2.124 0-4.467.101-6.648-.113.886 1.855 2.097 3.556 3.713 4.937 7.002 5.223 16.408 6.533 23.834 1.342 8.05-5.628 8.399-18.515 2.102-25.457m-40.36-42.479c.041 2.794-.349 11.237 3.746 11.776 2.308-.04 2.321-11.705 2.363-13.174.117-4.223-.15-8.457-.087-12.679a24.057 24.057 0 0 1-5.965-1.899c.06 5.325-.135 10.649-.057 15.976m41.062 23.083c-.602-13.461-1.44-27.219-10.803-37.795-7.828-8.844-19.494-12.907-30.805-14.949-11.146-2.012-22.612-1.969-33.903-1.497-.17 1.803-.307 3.614-.433 5.426 2.515.93 4.887 2.386 7.015 3.869 8.64-.149 17.283-.041 25.873.518.017.001.033.01.05.012.342.003.677.078.952.258 2.696 1.76 5.809 3.02 9.028 3.299 1.043.09 2.036.836 1.987 1.987-.254 6.172.27 12.342-.127 18.522-.24 3.751-.525 12.237-5.562 12.947l-.015.002c-1.989.923-4.454 1.029-6.572 1.254-1.173.126-2.35.222-3.528.307-.842 3.209-2.797 6.101-6.333 8.314-6.475 3.692-16.953 4.771-24.197.992-.072 3.431-.153 6.862-.205 10.295 7.503-5.209 18.233-5.858 26.065-1.178 2.231 1.333 4.008 3.103 5.396 5.13 1.42-2.532 3.022-4.969 4.691-7.335.655-.93 2.272-1.495 3.121-.402a120.011 120.011 0 0 1 2.967 4.004c.8 1.122 2.222 2.775 3.328 4.463a20.389 20.389 0 0 1 3.737-4.097c8.264-6.839 20.678-5.893 28.705.713-.087-5.022-.208-10.043-.432-15.059M97.987 57.783c-6.311-.364-12.647-.491-18.989-.466 3.793 3.375 7.152 7.253 10.093 11.365 3.847 5.381 7.591 12.933 7.57 19.779.677-.046 1.354-.083 2.03-.144.574-.052 1.284-.11 2.016-.186-1.515-2.069-2.117-4.946-2.457-7.734-.905-7.458-.143-15.097-.263-22.614m-35.602-5.348c-.879 12.371-1.422 24.919-.34 37.278.479 5.469 3.676 8.187 8.834 9.687 5.565 1.618 11.921.841 16.934-2.018 10.168-6.362 2.55-20.114-2.55-27.247-3.497-4.891-7.85-9.366-12.689-12.939-2.674-1.974-6.554-4.663-10.189-4.761m3.45 88.917c8.886 7.135 22.876 6.06 28.724-4.303.009-.015.015-.032.024-.048-.324.018-.649.027-.973.027-6.042 0-13.888.872-14.552-7.287-.497-6.127 1.942-10.929 8.632-10.929 1.95 0 4.084-.083 6.103.072-1.382-2.142-3.232-3.969-5.535-5.222-6.921-3.765-16.346-1.92-22.199 2.969-7.045 5.885-7.014 18.611-.224 24.721m32.434-15.254c-.372-4.571-6.918-3.312-10.064-3.312-1.961 0-3.652-.039-4.85 1.885-.761 1.223-.322 3.712-.322 5.07 0 4.562 7.196 3.313 10.063 3.313 1.961 0 3.652.039 4.849-1.885.762-1.224.324-3.712.324-5.071m9.797-5.809c-1.408-2.396-3.185-5.062-4.709-7.175-1.539 2.299-2.97 4.677-4.212 7.142.017.053.037.105.054.159 1.485.966 2.56 2.498 2.925 4.928a11.027 11.027 0 0 1 2.847-.037c.455-2.124 1.46-3.871 3.095-5.017m10.709 12.765c1.962 0 3.654.039 4.852-1.885.761-1.224.322-3.712.322-5.071-.372-4.571-6.918-3.312-10.063-3.312-1.962 0-3.653-.039-4.851 1.885-.761 1.223-.322 3.712-.322 5.07 0 4.562 7.196 3.313 10.062 3.313m-53.07 23.522c.158 4.328-.069 9.451.782 14.019a285.794 285.794 0 0 1 13.294-15.927c.467-.519 1.277-.691 1.933-.511 7.451 2.051 15.341 2.413 23.029 2.488 8.096.078 16.345-.365 24.273-2.09.937-.205 1.701.146 2.243.913 3.734 5.277 7.52 10.515 11.258 15.787.522-8.5.69-17.038.852-25.543-8.292 7.118-21.047 5.731-29.332-.652-.052-.04-.09-.087-.138-.13-.089-.055-.178-.109-.264-.181-2.996-2.519-4.916-5.787-5.895-9.324-1.629-1.065-2.767-2.805-3.002-5.684-.013-.156-.014-.309-.023-.465a7.053 7.053 0 0 0-2.497.056c-.082 1.567-.363 3.077-1.273 4.538a5.906 5.906 0 0 1-1.572 1.677c-.458 1.477-1.04 2.904-1.789 4.23-6.52 11.556-21.805 12.502-32.158 6.061.067 3.581.15 7.161.279 10.738M51.787 58.252c-.142 7.569-.765 15.107-.003 22.677.183 1.812.528 3.612 1.111 5.338.202.597.513 1.16.952 1.611.024.004.096.021.309.081 1.222.346 2.514.508 3.813.611l-.043-.594c-.309-3.94-.373-7.9-.387-11.849-.022-6.072.184-12.145.528-18.21-2.096.103-4.189.21-6.28.335m95.669 82.583c-.106 12.04-.349 24.127-1.352 36.105-.168 2.004-2.547 2.668-3.704 1.003-4.498-6.483-9.154-12.85-13.722-19.281-7.856 1.564-15.944 1.984-23.935 1.957-7.594-.024-15.459-.464-22.867-2.329a276.19 276.19 0 0 0-14.267 17.307c-.324 1.03-1.724 1.499-2.799 1.042-.751-.288-1.316-.938-1.286-1.7-1.756-4.961-1.486-11.181-1.709-16.304-.236-5.387-.336-10.779-.391-16.173-6.2-7.343-6.061-19.488.03-26.792.052-5.577.145-11.154.249-16.731a13.726 13.726 0 0 1-2.398-3.353c-.479-.948-.759-1.98-.943-3.04-2.122-.133-4.391-.294-6.301-1.136-2.762-1.219-3.495-5.381-3.922-7.973-1.482-8.956-.354-18.054-.296-27.06.006-.87.473-1.437 1.079-1.717a2.06 2.06 0 0 1 .909-.27 641.17 641.17 0 0 1 8.485-.457c.075-1.112.141-2.223.222-3.333.06-.818.556-1.765 1.459-1.916a11.965 11.965 0 0 1 3.209-.083c.114-2.145.252-4.287.475-6.415.116-1.117.818-1.935 1.987-1.988 6.318-.286 12.963-.487 19.647-.273-.113-3.613-.164-7.261-.042-10.899-2.732-1.64-4.499-5.946-5.599-8.425-1.028-2.321 2.394-4.345 3.432-2.006.656 1.482 1.442 3.449 2.494 5.041.154-1.703.352-3.401.626-5.082.41-2.525 4.239-1.449 3.833 1.057a62.902 62.902 0 0 0-.512 4.104c.343-.383.672-.779.998-1.173a33.244 33.244 0 0 0 2.046-2.788c1.41-2.124 4.853-.136 3.432 2.006-1.426 2.149-3.942 6.268-6.818 7.538-.105 3.61-.029 7.234.088 10.805 5.443.317 10.875.961 16.139 2.094.363-4.132.544-8.297.512-12.455-3.281-1.275-5.332-5.95-6.488-8.842-.952-2.382 2.893-3.406 3.832-1.057.448 1.12 1.332 3.243 2.504 4.737a115.95 115.95 0 0 0-.262-4.007c-.217-2.555 3.759-2.534 3.975 0 .115 1.347.196 2.7.265 4.054 1.14-1.486 2.193-3.64 2.529-4.342 1.103-2.312 4.53-.295 3.431 2.006-1.156 2.418-3.115 5.898-5.81 7.229.042 4.547-.173 9.103-.6 13.615 8.141 2.189 15.776 5.713 22.292 11.276 9.818 8.381 13.665 20.609 14.689 33.087.832 10.129 1.122 20.308 1.203 30.483 4.266 6.773 4.051 15.99-.048 22.854m-19.697-59.929c-.111 1.387-.087 2.79.018 4.177.131 1.705-2.52 1.692-2.649 0-.106-1.387-.13-2.79-.019-4.177.136-1.691 2.788-1.704 2.65 0m-8.945-9.726c-.765-.21-1.025-.915-.925-1.63.148-1.077-.14-2.652-.35-3.859-.291-1.67 2.262-2.385 2.555-.704.3 1.721.591 3.526.348 5.267-.097.717-1.001 1.099-1.628.926m8.173-.818c.05-1.358-.248-2.722-.671-4.008-.537-1.628 2.024-2.32 2.555-.705.492 1.496.825 3.137.766 4.713-.064 1.703-2.715 1.709-2.65 0m9.549 10.876c.021.516.059 1.032.103 1.547.032.374.071.748.131 1.119.025.164.059.328.092.491.015.063.193.587.063.295.296.659.196 1.419-.476 1.812-.573.336-1.516.185-1.812-.475-.654-1.454-.686-3.214-.75-4.789-.07-1.71 2.58-1.703 2.649 0M74.15 69.054c.276-.872 1.543-1.395 2.213-.585 1.698 2.048 3.482 4.092 5.541 5.781 1.323 1.084-.563 2.947-1.873 1.873-1.488-1.219-2.828-2.625-4.097-4.082-.439 1.223-.928 2.428-1.531 3.574-.397.755-1.503.86-2.081.267-1.22-1.249-2.375-2.566-3.508-3.899-.16 1.041-.314 2.083-.449 3.127-.218 1.669-2.872 1.69-2.65 0 .286-2.184.623-4.363.97-6.538.149-.951 1.611-1.314 2.213-.585a115.548 115.548 0 0 0 3.995 4.602c.48-1.155.881-2.346 1.257-3.535m17.412 57.59c1.487-3.674 8.994-.966 5.123 3.289-2.21 2.427-6.329-.31-5.123-3.289M67.57 81.938c1.431 1.209 2.853 2.442 4.204 3.743a20.05 20.05 0 0 1 1.63-4.395c.418-.81 1.465-.79 2.08-.268a25.321 25.321 0 0 1 3.841 4.036c.39-1.31.896-2.584 1.621-3.732.462-.73 1.45-.872 2.081-.268 2.326 2.224 4.583 4.604 6.354 7.298.942 1.432-1.354 2.758-2.287 1.338-1.316-2.001-2.95-3.803-4.654-5.502-.629 1.449-.994 3.015-1.281 4.559-.205 1.113-1.927 1.309-2.421.317-.924-1.857-2.247-3.473-3.738-4.912a16.296 16.296 0 0 0-1.08 4.243c-.118 1.059-1.398 1.869-2.262.937-1.328-1.437-2.774-2.768-4.254-4.056-.279 1.247-.496 2.507-.549 3.781-.074 1.702-2.725 1.71-2.65 0 .096-2.214.57-4.401 1.152-6.535.277-1.023 1.472-1.21 2.213-.584m47.811 47.995c-2.327 2.556-6.574-.735-4.711-3.662 2.127-3.346 7.979.068 4.711 3.662"/><g clip-path="url(#g)" opacity=".3"><path d="M95.504 85.866c.313-8.851-4.035-19.08-9.546-25.955-1.468-1.831-3.268-3.331-4.95-4.968 5.388.043 20.665.492 27.523 4.205 1.69.914 2.761-.993 2.761-.993-2.98-2.319-6.954-4.416-8.942-7.066-4.526-3.333-24.512-1.877-26.498-2.319-1.312-.291-9.44-6.403-9.44-6.403l-1.788-.408c.064 2.706.548 6.043.034 8.677 13.508 5.113 22.599 15.671 28.552 28.665 1.029 2.244 2.297 4.971 2.515 7.449z"/></g><g clip-path="url(#h)" opacity=".3"><path d="M64.117 115.39c6.27-7.274 20.069-6.724 26.611-2.629 2.344 1.465 4.907 3.7 6.358 6.066 1.61-3.089 4.079-5.783 5.746-8.748 3.168 2.707 4.712 7.156 7.761 9.607 2.972-3.044 5.376-6.853 9.485-8.285 13.238-4.61 22.474 2.213 24.801 5.052.066.055.066.056.006 0-3.122-9.331-18.987-15.21-27.938-9.4-4.036 2.62-5.828 5.293-9.73 1.088-.362-.391-2.799-2.551-4.123-2.551-1.326 0-3.333 2.774-5.217 3.578-2.897 1.234-5.704-1.415-8.245-2.324-2.986-1.067-6.331-1.244-9.473-1.211-5.319.055-11.511.68-16.397 2.98z"/></g><g clip-path="url(#i)" opacity=".3"><path d="M81.151 123.68c-.395-9.247 12.73-8.851 17.72-5.134 2.392 1.783 2.996 4.017 4.718 4.057 1.317.032 2.589-2.452 4.637-3.726 3.844-2.388 5.571-2.798 10.352-2.484 7.136.47 8.112 5.27 8.445 11.451 0 .124.004.127.014.008-2.823-6.391-11.963-10.363-18.106-5.093-1.383 1.184-2.054 3.207-2.636 4.87-1.883.048-3.803-.082-5.569.336-2.344-5.986-10.249-9.727-16.175-6.672-1.307.675-3.4 2.387-3.4 2.387"/></g></g></svg>