<?xml version="1.0" encoding="UTF-8" standalone="no"?>
<svg
   xmlns:dc="http://purl.org/dc/elements/1.1/"
   xmlns:cc="http://creativecommons.org/ns#"
   xmlns:rdf="http://www.w3.org/1999/02/22-rdf-syntax-ns#"
   xmlns:svg="http://www.w3.org/2000/svg"
   xmlns="http://www.w3.org/2000/svg"
   enable-background="new 0 0 128 128"
   id="Слой_1"
   version="1.1"
   viewBox="0 0 42 42"
   xml:space="preserve"
   width="42"
   height="42"><metadata
     id="metadata31"><rdf:RDF><cc:Work
         rdf:about=""><dc:format>image/svg+xml</dc:format><dc:type
           rdf:resource="http://purl.org/dc/dcmitype/StillImage" /><dc:title></dc:title></cc:Work></rdf:RDF></metadata><defs
     id="defs29" /><g
     id="g3"
     transform="matrix(0.39805825,0,0,0.39805825,-4.4757281,-4.4757281)"><g
       id="g5"><path
         d="M 64,115.5 C 50.244,115.5 37.311,110.143 27.584,100.416 17.856,90.689 12.5,77.756 12.5,64 12.5,50.244 17.856,37.311 27.584,27.584 37.311,17.857 50.244,12.5 64,12.5 c 13.756,0 26.689,5.357 36.416,15.084 9.728,9.727 15.084,22.66 15.084,36.416 0,13.756 -5.356,26.689 -15.084,36.416 C 90.689,110.143 77.756,115.5 64,115.5 Z m 0,-100 C 51.045,15.5 38.865,20.545 29.705,29.705 20.545,38.866 15.5,51.045 15.5,64 c 0,12.955 5.045,25.134 14.205,34.295 9.16,9.16 21.34,14.205 34.295,14.205 12.955,0 25.135,-5.045 34.295,-14.205 C 107.455,89.134 112.5,76.955 112.5,64 112.5,51.045 107.455,38.866 98.295,29.705 89.135,20.545 76.955,15.5 64,15.5 Z"
         id="path7"
         style="fill:#303031" /></g><g
       id="g9"><g
         id="g11"><rect
           height="4"
           width="50"
           x="39"
           y="56"
           id="rect13"
           style="fill:#303031" /></g><g
         id="g15"><rect
           height="4"
           width="50"
           x="39"
           y="44"
           id="rect17"
           style="fill:#303031" /></g><g
         id="g19"><rect
           height="4"
           width="50"
           x="39"
           y="68"
           id="rect21"
           style="fill:#303031" /></g><g
         id="g23"><rect
           height="4"
           width="50"
           x="39"
           y="80"
           id="rect25"
           style="fill:#303031" /></g></g></g></svg>