<?xml version="1.0" encoding="UTF-8" standalone="no"?>
<svg
   xmlns:dc="http://purl.org/dc/elements/1.1/"
   xmlns:cc="http://creativecommons.org/ns#"
   xmlns:rdf="http://www.w3.org/1999/02/22-rdf-syntax-ns#"
   xmlns:svg="http://www.w3.org/2000/svg"
   xmlns="http://www.w3.org/2000/svg"
   enable-background="new 0 0 128 128"
   id="Слой_1"
   version="1.1"
   viewBox="0 0 42 42"
   xml:space="preserve"
   width="42"
   height="42"><metadata
     id="metadata21"><rdf:RDF><cc:Work
         rdf:about=""><dc:format>image/svg+xml</dc:format><dc:type
           rdf:resource="http://purl.org/dc/dcmitype/StillImage" /><dc:title></dc:title></cc:Work></rdf:RDF></metadata><defs
     id="defs19" /><g
     id="g3"
     transform="matrix(0.39824384,0,0,0.39805825,-4.4876059,-4.4757281)"><line
       x1="45.615002"
       x2="82.385002"
       y1="45.615002"
       y2="82.385002"
       id="line5"
       style="fill:#303031" /><g
       id="g7"><line
         x1="45.615002"
         x2="82.385002"
         y1="82.385002"
         y2="45.615002"
         id="line9"
         style="fill:#303031" /><polygon
         points="59.758,64 43.494,80.264 47.736,84.506 64,68.242 80.264,84.506 84.506,80.264 68.242,64 84.506,47.736 80.264,43.494 64,59.758 47.736,43.494 43.494,47.736 "
         id="polygon11"
         style="fill:#303031" /></g><g
       id="g13"><path
         d="m 64,115.5 c -13.756,0 -26.689,-5.357 -36.416,-15.084 -20.08,-20.08 -20.08,-52.752 0,-72.832 C 37.311,17.857 50.244,12.5 64,12.5 c 13.756,0 26.689,5.357 36.416,15.084 20.08,20.08 20.08,52.752 0,72.832 C 90.689,110.143 77.756,115.5 64,115.5 Z m 0,-100 c -12.955,0 -25.134,5.045 -34.295,14.205 -18.91,18.91 -18.91,49.68 0,68.59 9.161,9.16 21.34,14.205 34.295,14.205 12.955,0 25.134,-5.045 34.295,-14.205 18.91,-18.91 18.91,-49.68 0,-68.59 C 89.134,20.545 76.955,15.5 64,15.5 Z"
         id="path15"
         style="fill:#303031" /></g></g></svg>