<svg xmlns="http://www.w3.org/2000/svg" xmlns:xlink="http://www.w3.org/1999/xlink" height="682.667" viewBox="-41 0 511 512" width="682.667" fill="#fff"><path d="M290.941 127.27a24.54 24.54 0 0 0-17.457-7.23 24.52 24.52 0 0 0-17.453 7.23c-4.664 4.664-7.234 10.863-7.234 17.457a24.52 24.52 0 0 0 7.23 17.453l42.055 42.055a24.53 24.53 0 0 0 34.91 0l89.852-89.852a24.52 24.52 0 0 0 7.23-17.453 24.52 24.52 0 0 0-7.23-17.457c-4.66-4.664-10.863-7.23-17.457-7.23s-12.793 2.566-17.453 7.23l-9.906 9.906c-7.34-5.602-15.395-10.094-23.93-13.344v-11.23c0-13.613-11.074-24.687-24.684-24.687h-77.406v-8.57C252.008 14.152 237.855 0 220.461 0h-86.324c-17.395 0-31.547 14.152-31.547 31.547v35.645c0 9.664 7.863 17.527 17.527 17.527H234.48c9.664 0 17.527-7.863 17.527-17.527V55.141h77.402a9.68 9.68 0 0 1 9.664 9.664v6.918c-6.184-1.25-12.512-1.914-18.914-1.914-52.613 0-95.418 42.805-95.418 95.418s42.805 95.418 95.418 95.418c6.418 0 12.746-.645 18.914-1.883v228.555c0 5.328-4.336 9.66-9.664 9.66H25.184a9.67 9.67 0 0 1-9.66-9.66V64.805c0-5.328 4.332-9.664 9.66-9.664h49.934c4.148 0 7.512-3.363 7.512-7.512s-3.363-7.512-7.512-7.512H25.184C11.574 40.117.5 51.191.5 64.805v422.512C.5 500.926 11.574 512 25.184 512h304.23c13.609 0 24.684-11.074 24.684-24.684V254.418a95.25 95.25 0 0 0 32.43-20.633c17.844-17.277 28.145-40.441 28.996-65.227.141-4.145-3.102-7.621-7.25-7.766-4.117-.137-7.621 3.102-7.766 7.25-1.199 34.887-24.141 63.691-55.645 73.742a7.16 7.16 0 0 0-1.254.41c-7.414 2.23-15.285 3.426-23.449 3.426-44.328 0-80.395-36.066-80.395-80.395S275.831 84.83 320.16 84.83a80.26 80.26 0 0 1 47.137 15.277l-51.758 51.762zm-53.957-60.078c0 1.383-1.121 2.504-2.504 2.504H120.117c-1.383 0-2.504-1.121-2.504-2.504V31.547c0-9.113 7.41-16.523 16.523-16.523h86.324c9.109 0 16.523 7.41 16.523 16.523zm161.574 22.906a9.58 9.58 0 0 1 6.828-2.832c2.582 0 5.008 1.008 6.836 2.832a9.68 9.68 0 0 1 0 13.664l-89.855 89.852a9.6 9.6 0 0 1-13.664 0l-42.055-42.055c-1.824-1.824-2.828-4.25-2.828-6.832s1.004-5.008 2.832-6.832a9.6 9.6 0 0 1 6.832-2.832c2.578 0 5.008 1.008 6.832 2.832l29.91 29.91a7.51 7.51 0 0 0 10.621 0zm-193.62 98.449H113.41a7.51 7.51 0 0 0 0 15.02h91.527c4.148 0 7.512-3.363 7.512-7.508s-3.363-7.512-7.512-7.512zm0 0"/><path d="M99.074 111.012H48.531c-4.148 0-7.512 3.363-7.512 7.512s3.363 7.512 7.512 7.512h50.543c4.148 0 7.512-3.363 7.512-7.512s-3.363-7.512-7.512-7.512zm14.336 127.402h91.527c4.148 0 7.512-3.363 7.512-7.512a7.51 7.51 0 0 0-7.512-7.508H113.41a7.51 7.51 0 0 0 0 15.02zm123.145 41.234H113.41a7.512 7.512 0 0 0 0 15.023h123.145c4.148 0 7.512-3.363 7.512-7.512s-3.363-7.512-7.512-7.512zM113.41 329.52h61.574a7.512 7.512 0 0 0 0-15.023H113.41a7.512 7.512 0 0 0 0 15.023zm0 56.351h91.527c4.148 0 7.512-3.363 7.512-7.512s-3.363-7.512-7.512-7.512H113.41a7.512 7.512 0 1 0 0 15.023zm0 34.844h123.145c4.148 0 7.512-3.363 7.512-7.512a7.51 7.51 0 0 0-7.512-7.508H113.41a7.51 7.51 0 0 0 0 15.02zm0 0"/><use xlink:href="#B"/><path d="M64.473 274.242c-16.73 0-30.34 13.613-30.34 30.34s13.609 30.34 30.34 30.34 30.34-13.609 30.34-30.34-13.609-30.34-30.34-30.34zm0 45.66c-8.445 0-15.316-6.871-15.316-15.316s6.871-15.32 15.316-15.32 15.316 6.871 15.316 15.32-6.871 15.316-15.316 15.316zm0 0"/><use xlink:href="#B" y="183.406"/><defs ><path id="B" d="M64.473 182.035c-16.73 0-30.34 13.609-30.34 30.34s13.609 30.34 30.34 30.34 30.34-13.609 30.34-30.34-13.609-30.34-30.34-30.34zm0 45.656c-8.445 0-15.316-6.871-15.316-15.316s6.871-15.316 15.316-15.316 15.316 6.871 15.316 15.316-6.871 15.316-15.316 15.316zm0 0"/></defs></svg>