<svg xmlns="http://www.w3.org/2000/svg" height="512" width="512" fill="#fff"  xmlns:v="https://vecta.io/nano"><path d="M348.877 113.373v25.218a11.34 11.34 0 0 0 7.022 10.51c4.327 1.792 9.18.752 12.399-2.466l31.662-31.663h79.941c16.261 0 29.489-13.229 29.489-29.489V29.489C509.39 13.229 496.162 0 479.901 0H358.458c-16.261 0-29.489 13.229-29.489 29.489v55.993c-.001 12.645 8.184 23.853 19.908 27.891zm-4.915-83.884c0-7.993 6.503-14.496 14.496-14.496h121.444c7.993 0 14.496 6.503 14.496 14.496v55.993c0 7.993-6.503 14.496-14.496 14.496h-81.718c-2.856 0-5.542 1.112-7.568 3.133l-26.745 26.746v-19.742c0-5.027-3.544-9.423-8.428-10.453-6.652-1.403-11.48-7.367-11.48-14.179V29.489zm148.02 410.529h-14.258V204.216c0-15.54-12.642-28.182-28.182-28.182H309.278a7.5 7.5 0 0 0-7.497 7.497 7.5 7.5 0 0 0 7.497 7.497h140.263c7.272 0 13.189 5.916 13.189 13.189v235.802h-24.989V237.246c0-11.705-9.523-21.228-21.228-21.228H263.371c2.2-5.723 3.719-11.789 4.415-18.112 7.964-1.755 13.941-8.869 13.941-17.354v-64.807c0-14.814-11.988-26.881-26.773-27.007-.479-14.475-12.404-26.102-26.993-26.102h-67.236c-28.894 0-52.401 23.507-52.401 52.401v65.515c0 8.485 5.977 15.599 13.942 17.354.696 6.324 2.215 12.389 4.415 18.112H95.487c-11.705 0-21.228 9.523-21.228 21.228v61.239c-9.822 3.687-18.355 9.797-24.989 17.511v-111.78c0-7.272 5.916-13.189 13.189-13.189h18.694a7.5 7.5 0 0 0 7.497-7.497 7.5 7.5 0 0 0-7.497-7.497H62.459c-15.54 0-28.182 12.642-28.182 28.182v235.802H20.018c-10.977 0-19.907 8.931-19.907 19.907C.111 488.64 23.471 512 52.185 512h407.63c28.714 0 52.074-23.36 52.074-52.074 0-10.977-8.931-19.908-19.907-19.908zm-75.469-209.007c3.438 0 6.235 2.797 6.235 6.235v202.773h-66.945v-27.468a7.5 7.5 0 0 0-7.497-7.497 7.5 7.5 0 0 0-7.497 7.497v27.468h-35.992V416.23a7.5 7.5 0 0 0-7.497-7.497 7.5 7.5 0 0 0-7.497 7.497v23.789h-60.98l-16.163-91.141 6.202-11.113c1.197.262 2.412.409 3.63.409 4.281 0 8.559-1.615 11.897-4.822l27.83-27.101c1.994-1.941 3.382-4.303 4.174-6.827l40.959 12.024c19.688 5.78 33.438 24.148 33.438 44.666v21.39a7.5 7.5 0 0 0 7.497 7.497 7.5 7.5 0 0 0 7.497-7.497v-21.39c0-27.127-18.179-51.41-44.208-59.053l-49.473-14.524c-1.362-1.301-2.939-2.37-4.671-3.141l-10.24-4.562a19.95 19.95 0 0 0-9.422-1.687V249.18c6.896-4.98 12.899-11.128 17.712-18.168h161.011zm-277.474 61.988l10.044-4.51c1.65-.74 3.574-.528 5.023.555l29.588 22.108-14.533 12.139a2.1 2.1 0 0 1-2.8-.085l-27.764-27.807c-.747-.746-.474-1.989.442-2.4zm83.756-35.466v22.894L195.7 301.408l-28.442-21.252v-22.622c17.56 7.234 37.481 7.438 55.537-.001zm28.554 35.559a1.49 1.49 0 0 1 .43 2.417l-27.793 27.064a2.1 2.1 0 0 1-2.833.083l-13.5-11.543 28.379-21.974a4.97 4.97 0 0 1 5.076-.611zm-61.794 46.969l-5.589-9.599 11.757-9.821 10.524 8.999-5.815 10.421zm1.975 14.993h7.018l15.068 84.964H176.47zm131.258 99.958c-3.027 7.882-10.656 13.501-19.59 13.501h-94.397c-8.934 0-16.563-5.619-19.59-13.501zm-199.47-339.975c0-20.627 16.781-37.408 37.408-37.408h67.236a12.03 12.03 0 0 1 12.014 12.014c0 7.767 6.32 14.087 14.087 14.087h.657a12.03 12.03 0 0 1 12.014 12.014v35.109h-5.985a6.09 6.09 0 0 1-6.079-6.079v-7.43c0-14.891-14.537-25.398-28.679-20.726-19.961 6.597-41.946 6.599-61.907.005-.023-.008-.054-.018-.084-.027-14.104-4.615-28.617 5.856-28.617 20.746v7.433a6.09 6.09 0 0 1-6.08 6.079h-5.985zm0 65.515v-14.705h5.985c11.62 0 21.074-9.453 21.074-21.073v-7.433c0-4.666 4.561-7.954 8.978-6.49a1.26 1.26 0 0 0 .079.025c22.981 7.579 48.289 7.572 71.262-.022 4.416-1.463 8.98 1.818 8.98 6.49v7.43c0 11.62 9.453 21.073 21.073 21.073h5.985v14.705a2.78 2.78 0 0 1-2.774 2.775c-5.716 0-10.479 4.485-10.842 10.213-1.927 30.561-27.443 54.501-58.091 54.501s-56.164-23.94-58.092-54.5c-.36-5.728-5.122-10.214-10.841-10.214a2.78 2.78 0 0 1-2.776-2.775zm-27.831 50.459h39.065c4.813 7.04 10.816 13.188 17.711 18.168V273.1c-3.148-.181-6.346.376-9.322 1.712l-10.044 4.509a16.48 16.48 0 0 0-4.639 3.134l-39.006 11.449v-56.657c.001-3.439 2.797-6.236 6.235-6.236zM49.27 356.116c0-20.52 13.751-38.887 33.441-44.667l41.23-12.101a16.49 16.49 0 0 0 4.046 6.647v-.001l27.891 27.932a17.06 17.06 0 0 0 11.931 4.865c1.154 0 2.307-.132 3.444-.366l6.132 10.531-16.141 91.063H100.23V416.23a7.5 7.5 0 0 0-7.497-7.497 7.5 7.5 0 0 0-7.497 7.497v23.789H49.27zm410.545 140.891H52.185c-20.446 0-37.081-16.634-37.081-37.081a4.92 4.92 0 0 1 4.914-4.914h153.583c3.459 16.259 17.925 28.494 35.2 28.494h94.397c17.275 0 31.741-12.235 35.2-28.494h153.583a4.92 4.92 0 0 1 4.914 4.914c.001 20.446-16.634 37.081-37.08 37.081z"/></svg>