<svg xmlns="http://www.w3.org/2000/svg" height="661.333" viewBox="-24 0 496 496" width="661.333" fill="#fff"  xmlns:v="https://vecta.io/nano"><path d="M16 48h240v56a7.99 7.99 0 0 0 8 8h56v64h16v-72a7.98 7.98 0 0 0-2.352-5.664l-63.977-63.977C268.215 32.902 266.215 32 264 32H48V16h304v176h16V8a7.99 7.99 0 0 0-8-8H40a7.99 7.99 0 0 0-8 8v24H8a7.99 7.99 0 0 0-8 8v448a7.99 7.99 0 0 0 8 8h272v-16H16zm256 11.313L308.688 96H272zM440 240h-12.047a119.67 119.67 0 0 1-92.184-43.168l-1.617-1.945c-3.031-3.656-9.266-3.656-12.297 0l-1.617 1.938A119.68 119.68 0 0 1 228.047 240H216a7.99 7.99 0 0 0-8 8v129.566c0 31.504 16.992 60.785 44.344 76.41l71.687 40.969a7.99 7.99 0 0 0 7.938 0l71.688-40.969C431.008 438.352 448 409.07 448 377.566V248a7.99 7.99 0 0 0-8-8zm-8 137.566c0 25.777-13.895 49.73-36.281 62.512L328 478.793l-67.719-38.703C237.895 427.297 224 403.344 224 377.566V256h4.047c38.176 0 74.227-15.863 99.953-43.77 25.719 27.906 61.777 43.77 99.953 43.77H432zM328 264c-48.52 0-88 39.48-88 88s39.48 88 88 88 88-39.48 88-88-39.48-88-88-88zm0 160c-39.703 0-72-32.297-72-72s32.297-72 72-72 72 32.297 72 72-32.297 72-72 72zm-3.816-47.129l-14.527-14.527-11.312 11.313 24 24A7.98 7.98 0 0 0 328 400c.648 0 1.305-.078 1.953-.238 2.734-.691 4.895-2.77 5.711-5.465l24-80-15.328-4.594zM32 128h208v16H32zm0 32h208v16H32zm0 32h208v16H32zm0 32h160v16H32zm0 0"/><path d="M32 256h160v16H32zm0 32h160v16H32zm0 96h160v16H32zm0 32h160v16H32zm0 0"/><path d="M32 448h160v16H32zm8-384h16v16H40zm32 0h16v16H72zm32 0h16v16h-16zm32 0h104v16H136zm0 0"/></svg>