<svg xmlns="http://www.w3.org/2000/svg" viewBox="0 0 512 512" fill="#fff"><path d="M256 40.01a9.97 9.97 0 0 0-9.99 9.99c0 5.147 3.872 9.43 8.99 9.938A9.97 9.97 0 0 0 265.99 50a9.97 9.97 0 0 0-9.99-9.99zM456 60c-27.57 0-50-22.43-50-50 0-5.522-4.478-10-10-10H116c-5.522 0-10 4.478-10 10 0 27.57-22.43 50-50 50-5.522 0-10 4.478-10 10v163.19c0 127.177 82.895 241.135 207.128 278.389A10.03 10.03 0 0 0 256 512c.968 0 1.937-.141 2.873-.422C380.415 475.119 466 363.149 466 233.19V70c0-5.522-4.478-10-10-10zm-10 173.19c0 119.448-76.221 222.892-190 258.353C143.128 456.365 66 351.984 66 233.19V79.288C96.611 74.89 120.89 50.611 125.288 20h261.424C391.11 50.611 415.389 74.89 446 79.288V233.19zm-25.988-140.7c-20.854-9.133-37.369-25.648-46.502-46.502A10 10 0 0 0 364.35 40h-68.37c-5.522 0-10 4.478-10 10s4.478 10 10 10h62.047A109.93 109.93 0 0 0 406 107.973V233.19c0 97.863-58.749 182.303-150 216.104-91.251-33.802-150-118.241-150-216.104V107.973C126.681 97.407 143.407 80.681 153.973 60h62.047c5.522 0 10-4.478 10-10s-4.478-10-10-10h-68.37a10 10 0 0 0-9.16 5.988c-9.133 20.854-25.648 37.369-46.502 46.502C88.351 94.084 86 97.679 86 101.65v131.54c0 107.213 66.311 200.653 166.664 236.166 1.079.382 2.207.573 3.336.573s2.257-.191 3.336-.573C359.605 433.873 426 340.49 426 233.19V101.65a10 10 0 0 0-5.988-9.16zM256 146c-49.626 0-90 40.374-90 90s40.374 90 90 90 90-40.374 90-90-40.374-90-90-90zm0 160c-38.598 0-70-31.402-70-70s31.402-70 70-70 70 31.402 70 70-31.402 70-70 70zm47.071-97.072c-3.906-3.904-10.236-3.904-14.143 0L246 251.857l-12.929-12.928c-3.906-3.904-10.236-3.904-14.143 0s-3.905 10.237 0 14.143l20 20C240.882 275.023 243.44 276 246 276a9.97 9.97 0 0 0 7.071-2.929l50-50c3.905-3.905 3.905-10.237 0-14.143z"/></svg>